<svg xmlns="http://www.w3.org/2000/svg" width="13" height="13" viewBox="0 0 13 13" fill="none">
  <path d="M12.7212 8.38808C12.3174 9.70619 11.5082 10.8634 10.4087 11.695C9.44339 12.4215 8.29467 12.8646 7.09149 12.9746C5.88831 13.0845 4.6783 12.8569 3.59727 12.3174C2.51624 11.7779 1.60699 10.9477 0.971557 9.9201C0.336127 8.89251 -0.000323045 7.70814 -3.04467e-05 6.49995C-0.00437442 5.08974 0.454069 3.71704 1.30497 2.59245C2.13656 1.49295 3.29374 0.683731 4.61184 0.279953C4.69872 0.253203 4.79124 0.250642 4.87946 0.272544C4.96768 0.294446 5.04826 0.339984 5.11254 0.404259C5.17681 0.468534 5.22235 0.549115 5.24425 0.637336C5.26616 0.725557 5.26359 0.818079 5.23684 0.904953C4.94862 1.85835 4.92445 2.87207 5.16692 3.83812C5.40939 4.80416 5.9094 5.68633 6.61369 6.39061C7.31797 7.09489 8.20013 7.59491 9.16618 7.83738C10.1322 8.07984 11.146 8.05568 12.0993 7.76745C12.1862 7.7407 12.2787 7.73814 12.367 7.76004C12.4552 7.78195 12.5358 7.82748 12.6 7.89176C12.6643 7.95603 12.7099 8.03662 12.7318 8.12484C12.7537 8.21306 12.7511 8.30558 12.7243 8.39245L12.7212 8.38808Z" fill="#FFD74B"/>
</svg>